<svg width="20" height="20" viewBox="0 0 20 20" fill="none" xmlns="http://www.w3.org/2000/svg">
<path d="M10 19.75C12.5859 19.75 15.0658 18.7228 16.8943 16.8943C18.7228 15.0658 19.75 12.5859 19.75 10C19.75 7.41414 18.7228 4.93419 16.8943 3.10571C15.0658 1.27723 12.5859 0.25 10 0.25C9.80109 0.25 9.61032 0.329018 9.46967 0.46967C9.32902 0.610322 9.25 0.801088 9.25 1V3.25C9.25 3.44891 9.32902 3.63968 9.46967 3.78033C9.61032 3.92098 9.80109 4 10 4C10.1989 4 10.3897 3.92098 10.5303 3.78033C10.671 3.63968 10.75 3.44891 10.75 3.25V1.78367C12.3112 1.9263 13.7995 2.51081 15.0405 3.46877C16.2816 4.42672 17.2239 5.71844 17.7573 7.19266C18.2907 8.66688 18.393 10.2626 18.0522 11.7928C17.7114 13.3231 16.9417 14.7245 15.8331 15.8331C14.7245 16.9417 13.3231 17.7114 11.7928 18.0522C10.2626 18.393 8.66688 18.2907 7.19266 17.7573C5.71844 17.2239 4.42672 16.2816 3.46877 15.0405C2.51081 13.7995 1.9263 12.3112 1.78367 10.75H3.25C3.44891 10.75 3.63968 10.671 3.78033 10.5303C3.92098 10.3897 4 10.1989 4 10C4 9.80109 3.92098 9.61032 3.78033 9.46967C3.63968 9.32902 3.44891 9.25 3.25 9.25H1C0.801088 9.25 0.610322 9.32902 0.46967 9.46967C0.329018 9.61032 0.25 9.80109 0.25 10C0.252918 12.585 1.28108 15.0632 3.10893 16.8911C4.93678 18.7189 7.41503 19.7471 10 19.75Z" fill="white"/>
<path d="M8.55534 9.61689C8.52001 9.74174 8.50122 9.8707 8.49946 10.0004C8.49946 10.2971 8.58743 10.5871 8.75226 10.8338C8.91708 11.0805 9.15135 11.2727 9.42544 11.3863C9.69953 11.4998 10.0011 11.5295 10.2921 11.4716C10.5831 11.4137 10.8503 11.2709 11.0601 11.0611C11.2699 10.8513 11.4128 10.584 11.4706 10.2931C11.5285 10.0021 11.4988 9.7005 11.3853 9.42641C11.2718 9.15232 11.0795 8.91806 10.8328 8.75323C10.5861 8.58841 10.2961 8.50044 9.99946 8.50044C9.86971 8.5022 9.74076 8.52101 9.61591 8.55639L4.1547 3.09518C4.08552 3.02354 4.00276 2.96641 3.91126 2.9271C3.81975 2.88779 3.72134 2.8671 3.62175 2.86624C3.52217 2.86537 3.42341 2.88435 3.33124 2.92206C3.23906 2.95977 3.15532 3.01546 3.0849 3.08588C3.01448 3.1563 2.95879 3.24004 2.92108 3.33221C2.88337 3.42438 2.8644 3.52314 2.86526 3.62273C2.86613 3.72231 2.88682 3.82073 2.92612 3.91223C2.96543 4.00374 3.02257 4.08649 3.0942 4.15568L8.55534 9.61689Z" fill="white"/>
<path d="M13.75 10C13.75 10.1989 13.829 10.3897 13.9697 10.5303C14.1103 10.671 14.3011 10.75 14.5 10.75H16C16.1989 10.75 16.3897 10.671 16.5303 10.5303C16.671 10.3897 16.75 10.1989 16.75 10C16.75 9.80109 16.671 9.61032 16.5303 9.46967C16.3897 9.32902 16.1989 9.25 16 9.25H14.5C14.3011 9.25 14.1103 9.32902 13.9697 9.46967C13.829 9.61032 13.75 9.80109 13.75 10Z" fill="white"/>
<path d="M13.7126 5.22641L12.6515 6.28714C12.5819 6.35677 12.5266 6.43945 12.4888 6.53045C12.4511 6.62145 12.4317 6.71899 12.4316 6.8175C12.4316 6.91601 12.451 7.01356 12.4886 7.10459C12.5263 7.19561 12.5815 7.27833 12.6512 7.34801C12.7208 7.4177 12.8035 7.47298 12.8945 7.51071C12.9855 7.54844 13.083 7.56788 13.1815 7.56792C13.28 7.56795 13.3776 7.54858 13.4686 7.51091C13.5596 7.47325 13.6424 7.41802 13.712 7.34839L14.7734 6.28789C14.8431 6.21824 14.8984 6.13554 14.9361 6.04452C14.9738 5.95351 14.9933 5.85595 14.9933 5.75741C14.9934 5.65888 14.974 5.56131 14.9363 5.47026C14.8986 5.37922 14.8434 5.29648 14.7737 5.22678C14.7041 5.15709 14.6214 5.10179 14.5304 5.06405C14.4394 5.02631 14.3418 5.00687 14.2433 5.00684C14.1447 5.0068 14.0472 5.02617 13.9561 5.06385C13.8651 5.10152 13.7823 5.15676 13.7126 5.22641Z" fill="white"/>
</svg>
