<svg width="22" height="22" viewBox="0 0 22 22" fill="none" xmlns="http://www.w3.org/2000/svg">
<path d="M16.25 21.5C16.8465 21.4993 17.4185 21.2621 17.8403 20.8403C18.2621 20.4185 18.4993 19.8465 18.5 19.25V16.2148C18.5 16.0159 18.421 15.8251 18.2803 15.6845C18.1397 15.5438 17.9489 15.4648 17.75 15.4648C17.5511 15.4648 17.3603 15.5438 17.2197 15.6845C17.079 15.8251 17 16.0159 17 16.2148V19.25C16.9998 19.4489 16.9207 19.6395 16.7801 19.7801C16.6395 19.9207 16.4489 19.9998 16.25 20H2.75C2.55114 19.9998 2.36048 19.9207 2.21987 19.7801C2.07925 19.6395 2.00018 19.4489 2 19.25V2.75C2.00018 2.55114 2.07925 2.36048 2.21987 2.21987C2.36048 2.07925 2.55114 2.00018 2.75 2H16.25C16.4489 2.00018 16.6395 2.07925 16.7801 2.21987C16.9207 2.36048 16.9998 2.55114 17 2.75V5.063C17 5.26191 17.079 5.45268 17.2197 5.59333C17.3603 5.73398 17.5511 5.813 17.75 5.813C17.9489 5.813 18.1397 5.73398 18.2803 5.59333C18.421 5.45268 18.5 5.26191 18.5 5.063V2.75C18.4993 2.15346 18.2621 1.58155 17.8403 1.15973C17.4185 0.737918 16.8465 0.500655 16.25 0.5H2.75C2.15346 0.500655 1.58155 0.737918 1.15973 1.15973C0.737918 1.58155 0.500655 2.15346 0.5 2.75V19.25C0.500655 19.8465 0.737918 20.4185 1.15973 20.8403C1.58155 21.2621 2.15346 21.4993 2.75 21.5H16.25Z" fill="white"/>
<path d="M4.25 13.25C4.05109 13.25 3.86032 13.329 3.71967 13.4697C3.57902 13.6103 3.5 13.8011 3.5 14C3.5 14.1989 3.57902 14.3897 3.71967 14.5303C3.86032 14.671 4.05109 14.75 4.25 14.75H7.25C7.44891 14.75 7.63968 14.671 7.78033 14.5303C7.92098 14.3897 8 14.1989 8 14C8 13.8011 7.92098 13.6103 7.78033 13.4697C7.63968 13.329 7.44891 13.25 7.25 13.25H4.25Z" fill="white"/>
<path d="M18.9548 6.92369C18.8142 6.78309 18.6234 6.7041 18.4246 6.7041C18.2257 6.7041 18.0349 6.78309 17.8943 6.92369L10.4698 14.3482C10.4001 14.4179 10.3448 14.5005 10.3071 14.5915C10.2694 14.6825 10.25 14.7801 10.25 14.8786V16.2496H4.25C4.05109 16.2496 3.86032 16.3287 3.71967 16.4693C3.57902 16.61 3.5 16.8007 3.5 16.9996C3.5 17.1986 3.57902 17.3893 3.71967 17.53C3.86032 17.6706 4.05109 17.7496 4.25 17.7496H13.1215C13.3203 17.7496 13.5111 17.6706 13.6517 17.5299L21.0767 10.1053C21.2173 9.9647 21.2963 9.77396 21.2963 9.57509C21.2963 9.37622 21.2173 9.18549 21.0767 9.04484L18.9548 6.92369ZM12.811 16.2496H11.75V15.1891L18.4246 8.51452L19.4855 9.57509L12.811 16.2496Z" fill="white"/>
<path d="M10.25 6.875C10.25 6.20749 10.0521 5.55497 9.68121 4.99995C9.31036 4.44494 8.78326 4.01235 8.16656 3.75691C7.54986 3.50146 6.87126 3.43463 6.21657 3.56485C5.56189 3.69508 4.96052 4.01651 4.48852 4.48852C4.01651 4.96052 3.69508 5.56189 3.56485 6.21657C3.43463 6.87126 3.50146 7.54986 3.75691 8.16656C4.01235 8.78326 4.44494 9.31036 4.99995 9.68121C5.55497 10.0521 6.20749 10.25 6.875 10.25C7.7698 10.249 8.62767 9.89311 9.26039 9.26039C9.89311 8.62767 10.249 7.7698 10.25 6.875ZM6.875 8.75C6.50416 8.75 6.14165 8.64003 5.83331 8.43401C5.52497 8.22798 5.28464 7.93514 5.14273 7.59253C5.00081 7.24992 4.96368 6.87292 5.03603 6.50921C5.10838 6.14549 5.28695 5.8114 5.54918 5.54918C5.8114 5.28695 6.14549 5.10838 6.50921 5.03603C6.87292 4.96368 7.24992 5.00081 7.59253 5.14273C7.93514 5.28464 8.22798 5.52497 8.43401 5.83331C8.64003 6.14165 8.75 6.50416 8.75 6.875C8.74949 7.37212 8.55178 7.84874 8.20026 8.20026C7.84874 8.55178 7.37212 8.74949 6.875 8.75Z" fill="white"/>
</svg>
